<?xml version="1.0" standalone="no"?>
<!DOCTYPE svg PUBLIC "-//W3C//DTD SVG 20010904//EN"
 "http://www.w3.org/TR/2001/REC-SVG-20010904/DTD/svg10.dtd">
<svg version="1.0" xmlns="http://www.w3.org/2000/svg"
 width="100.000000pt" height="100.000000pt" viewBox="0 0 100.000000 100.000000"
 preserveAspectRatio="xMidYMid meet">

<g transform="translate(0.000000,100.000000) scale(0.100000,-0.100000)"
fill="#000000" stroke="none">
<path d="M122 749 c3 -113 6 -133 20 -143 13 -8 23 -8 35 0 15 9 19 28 21 102
l3 91 91 3 c74 2 93 6 102 21 8 12 8 22 0 35 -10 14 -30 17 -143 20 l-132 3 3
-132z"/>
<path d="M612 868 c-7 -7 -12 -19 -12 -28 0 -32 23 -40 112 -40 l87 0 3 -91
c2 -75 6 -94 21 -103 12 -8 22 -8 35 0 14 10 17 30 20 143 l3 131 -129 0 c-86
0 -132 -4 -140 -12z"/>
<path d="M132 368 c-8 -8 -12 -54 -12 -140 l0 -129 131 3 c113 3 133 6 143 20
8 13 8 23 0 35 -9 15 -28 19 -103 21 l-91 3 0 87 c0 89 -8 112 -40 112 -9 0
-21 -5 -28 -12z"/>
<path d="M812 368 c-8 -8 -12 -45 -12 -100 l0 -87 -91 -3 c-75 -2 -94 -6 -103
-20 -8 -13 -8 -23 0 -35 10 -15 30 -18 143 -21 l131 -3 0 129 c0 130 -6 152
-40 152 -9 0 -21 -5 -28 -12z"/>
</g>
</svg>
